<svg width="32" height="32" viewBox="0 0 30 24" fill="none" xmlns="http://www.w3.org/2000/svg">
  <path
    d="M9.51074 16.877C9.51074 18.9863 9.0127 20.6172 8.0166 21.7695C7.04004 22.9023 5.63379 23.4688 3.79785 23.4688C2.84082 23.4688 2.0498 23.2441 1.4248 22.7949C0.819336 22.3457 0.516602 21.7598 0.516602 21.0371C0.516602 20.5879 0.672852 20.207 0.985352 19.8945C1.31738 19.5625 1.70801 19.3965 2.15723 19.3965C2.99707 19.3965 3.57324 19.9531 3.88574 21.0664C4.02246 21.4961 4.14941 21.7988 4.2666 21.9746C4.38379 22.1504 4.55957 22.2383 4.79395 22.2383C5.63379 22.2383 6.05371 21.4961 6.05371 20.0117V4.51367C6.05371 3.9082 6.01465 3.41992 5.93652 3.04883C5.87793 2.67773 5.74121 2.38477 5.52637 2.16992C5.31152 1.95508 4.99902 1.80859 4.58887 1.73047C4.17871 1.63281 3.63184 1.56445 2.94824 1.52539V0.851562H12.5576V1.52539C11.874 1.56445 11.3271 1.63281 10.917 1.73047C10.5264 1.80859 10.2236 1.95508 10.0088 2.16992C9.81348 2.38477 9.67676 2.67773 9.59863 3.04883C9.54004 3.41992 9.51074 3.9082 9.51074 4.51367V16.877ZM28.876 7.53125H28.0557C27.9189 7.04297 27.7822 6.61328 27.6455 6.24219C27.5283 5.87109 27.3818 5.53906 27.2061 5.24609C27.0498 4.93359 26.874 4.66016 26.6787 4.42578C26.4834 4.17188 26.2588 3.9082 26.0049 3.63477C24.833 2.4043 23.4658 1.78906 21.9033 1.78906C20.8682 1.78906 20.0283 2.0625 19.3838 2.60938C18.7588 3.15625 18.4463 3.89844 18.4463 4.83594C18.4463 5.75391 18.8271 6.61328 19.5889 7.41406C20.3506 8.21484 21.6006 9.09375 23.3389 10.0508C25.5654 11.2617 27.167 12.4434 28.1436 13.5957C29.1396 14.748 29.6377 16.0078 29.6377 17.375C29.6377 18.2344 29.4619 19.0352 29.1104 19.7773C28.7588 20.5195 28.2803 21.1641 27.6748 21.7109C27.0693 22.2578 26.3467 22.6875 25.5068 23C24.667 23.3125 23.7686 23.4688 22.8115 23.4688C22.1279 23.4688 21.4541 23.4102 20.79 23.293C20.126 23.1758 19.4814 22.9805 18.8564 22.707C18.5244 22.5898 18.2217 22.502 17.9482 22.4434C17.6748 22.3652 17.4502 22.3262 17.2744 22.3262C17.0205 22.3262 16.8057 22.4336 16.6299 22.6484C16.4541 22.8633 16.3564 23.127 16.3369 23.4395H15.6045L14.6084 16.3496H15.3701C16.21 18.4004 17.167 19.9043 18.2412 20.8613C19.3154 21.7988 20.6143 22.2676 22.1377 22.2676C23.3682 22.2676 24.3545 21.9258 25.0967 21.2422C25.8584 20.5586 26.2393 19.6602 26.2393 18.5469C26.2393 18.1172 26.1904 17.7363 26.0928 17.4043C26.0146 17.0723 25.8975 16.7891 25.7412 16.5547C25.3506 15.9297 24.7256 15.2852 23.8662 14.6211C23.0264 13.957 22.0107 13.293 20.8193 12.6289C19.8818 12.1406 19.0811 11.6523 18.417 11.1641C17.7529 10.6758 17.2061 10.168 16.7764 9.64062C16.3662 9.11328 16.0635 8.56641 15.8682 8C15.6729 7.43359 15.5752 6.81836 15.5752 6.1543C15.5752 4.29883 16.2197 2.85352 17.5088 1.81836C18.0557 1.36914 18.6611 1.02734 19.3252 0.792969C19.9893 0.539063 20.6436 0.412109 21.2881 0.412109C21.874 0.412109 22.46 0.480469 23.0459 0.617188C23.6514 0.734375 24.2666 0.910156 24.8916 1.14453C25.2041 1.28125 25.4873 1.37891 25.7412 1.4375C25.9951 1.49609 26.21 1.52539 26.3857 1.52539C26.9326 1.52539 27.2842 1.1543 27.4404 0.412109H28.1436L28.876 7.53125Z"
    fill="white" />
</svg>