<svg width="32" height="32" viewBox="0 0 27 25" fill="none" xmlns="http://www.w3.org/2000/svg">
  <path
    d="M8.65275 0.695999V18.232C8.65275 22.6053 6.66875 24.792 2.70075 24.792C1.86875 24.792 1.05808 24.664 0.26875 24.408V21.112C1.10075 21.3893 1.83675 21.528 2.47675 21.528C4.26875 21.528 5.16475 20.4507 5.16475 18.296V0.695999H8.65275ZM25.1098 4.312C24.0431 3.77867 22.6138 3.512 20.8218 3.512C18.0484 3.512 16.6618 4.536 16.6618 6.584C16.6618 7.56533 17.5258 8.6 19.2538 9.688C20.6831 10.6053 21.8031 11.3307 22.6138 11.864C23.4244 12.3973 23.9151 12.7493 24.0858 12.92C25.8138 14.4347 26.6778 16.184 26.6778 18.168C26.6778 20.3867 25.8244 22.1253 24.1178 23.384C22.6671 24.4507 20.9284 24.984 18.9018 24.984C16.8751 24.984 15.0191 24.6107 13.3338 23.864L13.7498 20.312C15.3498 21.208 17.1098 21.656 19.0298 21.656C21.8671 21.656 23.2858 20.408 23.2858 17.912C23.2858 16.9307 22.4218 15.864 20.6938 14.712C19.1364 13.6667 17.9524 12.8667 17.1418 12.312C16.3524 11.7573 15.9258 11.4587 15.8618 11.416C14.1551 9.944 13.3018 8.33333 13.3018 6.584C13.3018 4.6 14.0698 3.01067 15.6058 1.816C16.9924 0.749332 18.7418 0.216 20.8538 0.216C22.6031 0.216 24.2138 0.493333 25.6858 1.048L25.1098 4.312Z"
    fill="white" />
</svg>