<svg width="100%" height="100%" viewBox="0 0 77 77" fill="none" xmlns="http://www.w3.org/2000/svg">
  <path
    d="M6.71 14.897C8.62133 13.067 10.858 12.152 13.42 12.152C15.1687 12.152 16.5107 12.6197 17.446 13.555C18.422 14.4497 18.91 15.629 18.91 17.093C18.91 18.557 18.5033 20.1227 17.69 21.79C16.9173 23.4167 16.3277 24.6367 15.921 25.45C15.555 26.2633 14.9857 27.3207 14.213 28.622C13.481 29.9233 12.932 30.879 12.566 31.489C12.1187 32.343 11.0817 34.112 9.455 36.796H19.642L23.18 15.507C24.034 15.1817 25.1523 15.019 26.535 15.019C27.9177 15.019 29.0157 15.2833 29.829 15.812C30.683 16.3407 31.11 17.337 31.11 18.801C31.11 19.3297 31.0693 19.8177 30.988 20.265C30.9473 20.6717 29.9103 26.3853 27.877 37.406C33.001 38.626 35.563 41.798 35.563 46.922C35.563 47.5727 35.5223 48.2437 35.441 48.935C35.0343 52.5137 33.8957 55.096 32.025 56.682C30.195 58.2273 27.999 59 25.437 59C22.9157 59 20.9433 58.3087 19.52 56.926C18.0967 55.5027 17.385 53.6727 17.385 51.436C17.385 50.6633 17.4257 50.0737 17.507 49.667L18.483 43.811L3.233 43.994L1.586 40.456C1.01667 39.114 0.732 38.321 0.732 38.077C0.732 37.833 0.752333 37.6907 0.793 37.65C6.56767 30.1267 9.65833 23.9453 10.065 19.106C10.065 18.984 10.065 18.862 10.065 18.74C10.065 16.9507 8.94667 15.6697 6.71 14.897ZM30.683 47.776C30.683 45.2547 29.3817 43.872 26.779 43.628C26.0877 47.4507 25.742 49.6467 25.742 50.216C25.742 51.924 26.3113 52.778 27.45 52.778C28.2633 52.778 28.9547 52.4527 29.524 51.802C30.2967 50.7853 30.683 49.4433 30.683 47.776ZM51.3863 37.711C49.0276 39.3783 47.8483 41.859 47.8483 45.153C47.8483 47.227 48.5803 49.179 50.0443 51.009C51.549 52.839 54.0703 53.754 57.6083 53.754C61.1463 53.754 64.5013 52.5543 67.6733 50.155C70.8453 47.7557 73.2446 45.1327 74.8713 42.286L76.9453 46.007C71.6993 54.913 64.3996 59.366 55.0463 59.366C50.4103 59.366 46.486 58.1257 43.2733 55.645C40.0606 53.1237 38.4543 50.1753 38.4543 46.8C38.4543 40.9033 41.0773 36.6333 46.3233 33.99C44.5746 31.8347 43.7003 29.3133 43.7003 26.426C43.7003 22.644 45.327 19.3907 48.5803 16.666C51.8743 13.9413 55.6766 12.579 59.9873 12.579C64.298 12.579 67.6123 13.677 69.9303 15.873C72.289 18.069 73.4683 20.9563 73.4683 24.535H67.6733C67.714 22.339 67.1243 20.692 65.9043 19.594C64.725 18.4553 63.0576 17.886 60.9023 17.886C58.7876 17.886 56.8763 18.6587 55.1683 20.204C53.257 21.8713 52.3013 23.8233 52.3013 26.06C52.3013 28.2967 52.9113 30.2283 54.1313 31.855C58.198 31.367 61.2886 31.6313 63.4033 32.648C64.7046 33.258 65.3553 34.234 65.3553 35.576C65.3553 36.8773 64.603 37.7923 63.0983 38.321C61.6343 38.8497 59.8653 39.114 57.7913 39.114C55.7173 39.114 53.5823 38.6463 51.3863 37.711Z"
    fill="#fff" />
</svg>