<svg width="77" height="77" viewBox="0 0 77 77" fill="none" xmlns="http://www.w3.org/2000/svg">
<path d="M28.3068 11.483V44.911C28.3068 53.2477 24.5248 57.416 16.9608 57.416C15.3748 57.416 13.8295 57.172 12.3248 56.684V50.401C13.9108 50.9297 15.3138 51.194 16.5338 51.194C19.9498 51.194 21.6578 49.1403 21.6578 45.033V11.483H28.3068ZM59.678 18.376C57.6446 17.3593 54.92 16.851 51.504 16.851C46.2173 16.851 43.574 18.803 43.574 22.707C43.574 24.5777 45.221 26.55 48.515 28.624C51.2396 30.3727 53.3746 31.7553 54.92 32.772C56.4653 33.7887 57.4006 34.4597 57.726 34.785C61.02 37.6723 62.667 41.007 62.667 44.789C62.667 49.0183 61.0403 52.3327 57.787 54.732C55.0216 56.7653 51.7073 57.782 47.844 57.782C43.9806 57.782 40.4426 57.0703 37.23 55.647L38.023 48.876C41.073 50.584 44.428 51.438 48.088 51.438C53.4966 51.438 56.201 49.059 56.201 44.301C56.201 42.4303 54.554 40.397 51.26 38.201C48.2913 36.2083 46.0343 34.6833 44.489 33.626C42.9843 32.5687 42.171 31.9993 42.049 31.918C38.7956 29.112 37.169 26.0417 37.169 22.707C37.169 18.925 38.633 15.8953 41.561 13.618C44.2043 11.5847 47.539 10.568 51.565 10.568C54.8996 10.568 57.97 11.0967 60.776 12.154L59.678 18.376Z" fill="white"/>
</svg>
